<?xml version="1.0" standalone="no"?>
<!DOCTYPE svg PUBLIC "-//W3C//DTD SVG 20010904//EN"
 "http://www.w3.org/TR/2001/REC-SVG-20010904/DTD/svg10.dtd">
<svg version="1.0" xmlns="http://www.w3.org/2000/svg"
 width="160.000000pt" height="160.000000pt" viewBox="0 0 160.000000 160.000000"
 preserveAspectRatio="xMidYMid meet">
<metadata>
Created by potrace 1.11, written by Peter Selinger 2001-2013
</metadata>
<g transform="translate(0.000000,160.000000) scale(0.100000,-0.100000)"
fill="#000000" stroke="none">
<path d="M728 1534 c-15 -8 -82 -69 -149 -135 l-122 -120 -88 90 c-49 49 -89
88 -89 85 0 -2 -13 10 -29 28 l-29 33 -70 -73 -71 -72 115 -116 c101 -101 114
-117 102 -132 -7 -9 -60 -64 -119 -122 -124 -124 -144 -156 -128 -210 11 -38
118 -160 140 -160 7 0 9 -3 6 -7 -4 -3 2 -13 13 -20 11 -8 17 -19 14 -25 -4
-6 -3 -8 3 -5 13 8 56 -37 46 -48 -5 -4 -3 -5 3 -2 10 6 44 -22 36 -29 -41
-34 -222 -221 -222 -229 0 -6 32 -42 71 -80 40 -39 69 -65 66 -60 -3 6 3 17
15 24 11 7 18 9 15 4 -3 -5 3 -9 13 -9 10 0 18 5 17 11 -1 5 6 10 15 10 22 0
33 12 11 12 -10 0 -24 -5 -32 -11 -12 -9 -12 -8 -1 11 8 12 20 19 28 15 10 -3
13 -1 8 6 -4 7 -3 12 3 12 5 0 12 -6 15 -12 3 -7 3 -3 1 8 -4 16 6 33 38 66
24 24 50 42 57 40 7 -3 10 0 6 7 -4 6 -2 11 4 11 6 0 8 5 4 13 -5 7 0 6 11 -3
10 -8 19 -13 19 -10 1 3 18 -10 38 -29 21 -19 35 -38 31 -44 -3 -6 -2 -7 4 -4
13 8 56 -37 46 -47 -5 -4 -3 -6 3 -4 6 2 32 -19 59 -46 64 -64 98 -78 153 -64
23 6 42 14 42 19 0 5 7 6 15 3 8 -4 12 -10 9 -15 -3 -5 0 -9 5 -9 14 0 14 17
1 25 -15 9 -12 25 6 25 8 0 13 4 10 9 -6 10 58 71 75 71 6 0 8 4 5 8 -9 14 48
62 76 64 15 1 26 7 25 13 -1 5 4 9 11 7 8 -1 11 2 7 8 -4 6 -16 4 -33 -7 l-27
-16 25 25 c14 14 27 22 30 18 3 -3 14 -10 25 -14 16 -6 17 -9 5 -17 -12 -9
-12 -10 3 -5 13 4 43 -20 112 -89 l94 -94 64 62 c35 34 62 65 60 69 -2 3 1 8
7 10 6 2 -37 50 -94 108 -91 93 -103 108 -93 125 9 18 9 19 -6 6 -21 -17 -22
-2 -3 25 13 16 18 17 35 6 25 -15 27 -9 5 12 -14 15 -14 16 0 16 9 0 16 -5 16
-12 0 -6 3 -8 6 -5 4 4 1 14 -7 24 -12 15 -12 16 5 10 13 -5 17 -3 13 7 -8 20
56 79 70 65 9 -9 10 -7 6 10 -4 17 -2 20 11 15 11 -4 15 -2 11 7 -3 8 12 32
33 54 20 22 39 49 40 60 2 11 9 26 14 33 8 10 6 11 -8 5 -17 -6 -17 -5 -5 10
12 15 12 17 -4 11 -12 -5 -16 -4 -11 4 3 6 2 13 -4 17 -6 4 -8 10 -5 14 2 5
-7 13 -21 20 -14 6 -22 16 -19 21 3 6 2 10 -4 10 -13 0 -61 48 -61 61 0 6 -4
8 -9 5 -5 -3 -18 9 -30 27 -11 17 -21 29 -21 25 0 -4 -10 3 -23 15 -14 14 -18
25 -12 29 6 5 3 8 -6 8 -26 0 -45 28 -30 43 10 9 11 8 5 -7 -6 -15 -4 -17 6
-11 9 6 11 4 5 -5 -5 -8 -4 -11 3 -7 5 4 8 16 5 27 -3 12 0 20 6 20 7 0 9 -5
5 -12 -4 -7 -3 -8 4 -4 6 4 9 13 6 20 -3 7 3 19 12 27 15 12 16 12 10 -9 -4
-12 -3 -22 2 -22 6 0 9 12 9 28 -2 20 10 39 46 74 26 25 50 42 53 37 3 -5 0
-9 -7 -9 -7 0 -9 -3 -6 -6 8 -9 37 15 37 30 0 6 -5 4 -10 -4 -6 -10 -10 -11
-10 -2 0 6 9 21 20 32 19 19 19 20 -52 91 l-71 71 -112 -112 c-79 -79 -118
-111 -131 -108 -11 2 -18 11 -18 21 1 9 -2 15 -6 12 -9 -6 -80 62 -80 77 0 5
-4 6 -10 3 -5 -3 -15 5 -21 19 -7 14 -16 23 -20 20 -5 -3 -9 2 -9 11 0 9 -5
13 -11 10 -6 -4 -13 2 -16 14 -3 11 -9 19 -13 16 -4 -3 -10 2 -14 10 -6 16
-68 45 -95 45 -9 -1 -28 -7 -43 -16z m57 -234 c-3 -5 4 -15 17 -21 13 -6 37
-28 53 -49 17 -22 34 -39 38 -40 4 0 19 -12 33 -27 l24 -26 -87 -88 -88 -89
-72 74 c-40 41 -73 79 -73 85 0 6 -7 11 -16 11 -14 0 -14 2 0 15 8 8 21 15 28
15 10 0 9 -3 -2 -10 -13 -8 -13 -11 0 -22 8 -7 11 -9 7 -4 -4 5 -2 15 4 22 9
10 7 15 -4 20 -12 4 -7 13 23 40 20 19 43 34 49 34 6 0 11 5 11 11 0 5 -5 7
-12 3 -7 -4 -8 -3 -4 5 4 6 11 9 16 6 4 -3 15 6 24 20 15 23 45 37 31 15z
m-312 -343 c-3 -5 2 -7 10 -5 8 2 45 -28 82 -66 l67 -69 -88 -87 -87 -87 -77
76 c-42 42 -75 79 -73 84 2 4 0 7 -5 7 -5 0 -9 7 -9 15 0 13 4 12 21 -2 20
-17 20 -17 6 1 -13 17 -11 21 20 49 19 17 34 35 33 39 -2 4 4 5 13 1 9 -3 14
0 12 8 -2 9 9 13 34 14 20 0 34 4 31 8 -3 5 -14 7 -24 4 -10 -3 -22 0 -26 5
-3 7 -1 8 5 4 7 -4 12 -2 12 4 0 7 7 10 14 7 11 -4 13 -1 9 11 -6 14 -5 15 9
2 9 -8 14 -19 11 -23z m693 -34 c13 -13 21 -23 18 -23 -3 0 16 -18 41 -40 l46
-40 -84 -86 c-96 -98 -97 -98 -165 -21 -20 22 -45 48 -54 56 -21 18 -24 41 -5
42 9 0 9 2 -1 6 -6 2 -10 9 -7 14 4 5 -2 6 -12 3 -16 -5 -16 -4 1 6 14 10 20
9 28 -1 7 -10 8 -8 3 7 -4 17 8 35 56 83 l62 62 25 -23 c14 -13 35 -33 48 -45z
m-216 -107 c0 -3 -4 -8 -10 -11 -5 -3 -10 -1 -10 4 0 6 5 11 10 11 6 0 10 -2
10 -4z m-165 -156 c-3 -6 2 -13 12 -17 10 -3 49 -37 86 -75 l68 -69 -84 -85
c-46 -46 -87 -84 -92 -84 -11 0 -105 99 -105 111 0 5 -4 7 -10 4 -5 -3 -10 -1
-10 5 0 14 -26 41 -32 35 -3 -3 -5 2 -5 10 0 8 7 17 14 19 9 4 12 1 8 -7 -4
-6 1 -3 10 8 9 11 24 19 33 18 10 -1 11 0 4 3 -6 3 -9 11 -5 17 3 7 -3 4 -14
-5 -11 -10 -23 -18 -28 -18 -4 0 2 9 15 20 28 24 29 24 47 3 13 -16 13 -16 4
4 -6 12 -8 29 -5 38 6 14 9 14 33 -1 14 -9 21 -11 14 -4 -13 14 -8 36 15 63
16 18 38 24 27 7z"/>
<path d="M756 1273 c-6 -14 -5 -15 5 -6 7 7 10 15 7 18 -3 3 -9 -2 -12 -12z"/>
<path d="M775 1260 c-3 -5 -1 -10 4 -10 6 0 11 5 11 10 0 6 -2 10 -4 10 -3 0
-8 -4 -11 -10z"/>
<path d="M676 1201 c-18 -20 -20 -31 -6 -31 6 0 9 4 8 9 -2 5 2 9 7 9 6 0 9
-4 7 -10 -1 -5 2 -7 8 -3 6 3 8 10 5 15 -3 4 0 10 7 12 8 3 6 6 -4 10 -9 4
-23 -1 -32 -11z"/>
<path d="M400 926 c0 -2 8 -10 18 -17 15 -13 16 -12 3 4 -13 16 -21 21 -21 13z"/>
<path d="M381 886 c-9 -11 -9 -16 0 -22 7 -4 9 -3 5 4 -3 6 2 15 11 21 10 6
13 11 7 11 -6 0 -17 -6 -23 -14z"/>
<path d="M347 873 c-13 -12 -7 -23 11 -22 10 0 12 3 4 6 -6 2 -10 9 -6 14 6
10 0 12 -9 2z"/>
<path d="M327 839 c7 -7 15 -10 18 -7 3 3 -2 9 -12 12 -14 6 -15 5 -6 -5z"/>
<path d="M1086 972 c-3 -6 -1 -14 5 -17 15 -10 25 3 12 16 -7 7 -13 7 -17 1z"/>
<path d="M1063 954 c3 -3 -10 -19 -28 -36 -21 -18 -32 -35 -28 -44 7 -18 13
-13 17 13 2 10 10 17 19 17 9 -1 13 4 10 12 -5 13 8 19 31 15 5 -1 4 5 -4 13
-7 9 -15 16 -18 16 -3 0 -3 -3 1 -6z"/>
<path d="M1116 942 c-3 -5 1 -9 9 -9 8 0 12 4 9 9 -3 4 -7 8 -9 8 -2 0 -6 -4
-9 -8z"/>
<path d="M993 851 c0 -11 5 -18 9 -15 4 3 5 11 1 19 -7 21 -12 19 -10 -4z"/>
<path d="M770 640 c0 -5 5 -10 11 -10 5 0 7 5 4 10 -3 6 -8 10 -11 10 -2 0 -4
-4 -4 -10z"/>
<path d="M800 626 c0 -2 7 -7 16 -10 8 -3 12 -2 9 4 -6 10 -25 14 -25 6z"/>
<path d="M750 609 c0 -5 5 -7 10 -4 6 3 10 8 10 11 0 2 -4 4 -10 4 -5 0 -10
-5 -10 -11z"/>
<path d="M710 580 c0 -5 5 -10 11 -10 5 0 7 5 4 10 -3 6 -8 10 -11 10 -2 0 -4
-4 -4 -10z"/>
<path d="M1370 1255 c-27 -28 -31 -38 -21 -48 10 -10 11 -8 5 8 -7 18 -6 19
12 5 17 -14 18 -14 6 2 -8 10 -9 19 -3 22 5 3 11 3 14 -1 2 -5 2 -3 1 4 -4 18
23 37 29 21 4 -9 6 -9 6 -1 2 25 -17 21 -49 -12z"/>
<path d="M1518 783 c7 -3 16 -2 19 1 4 3 -2 6 -13 5 -11 0 -14 -3 -6 -6z"/>
<path d="M1478 730 c-23 -22 -37 -40 -31 -40 7 0 18 9 26 20 8 11 17 17 21 12
4 -4 6 -2 4 5 -1 6 6 19 17 27 11 8 16 16 12 16 -4 0 -27 -18 -49 -40z"/>
<path d="M1460 680 c-8 -5 -10 -10 -5 -10 6 0 17 5 25 10 8 5 11 10 5 10 -5 0
-17 -5 -25 -10z"/>
<path d="M1372 625 c-25 -29 -29 -43 -6 -25 15 13 38 50 31 50 -2 0 -13 -11
-25 -25z"/>
<path d="M1396 615 c-9 -26 -7 -32 5 -12 6 10 9 21 6 23 -2 3 -7 -2 -11 -11z"/>
<path d="M1282 516 c7 -8 15 -12 17 -11 5 6 -10 25 -20 25 -5 0 -4 -6 3 -14z"/>
<path d="M1280 480 c-9 -6 -10 -10 -3 -10 6 0 15 5 18 10 8 12 4 12 -15 0z"/>
<path d="M450 318 c0 -4 4 -8 9 -8 6 0 12 4 15 8 3 5 -1 9 -9 9 -8 0 -15 -4
-15 -9z"/>
<path d="M384 268 c-16 -17 -24 -28 -17 -24 6 3 14 0 17 -6 3 -7 4 -4 3 7 -1
14 4 20 15 19 10 -1 15 3 12 8 -4 6 0 14 7 19 8 5 9 9 3 9 -5 0 -23 -14 -40
-32z"/>
<path d="M1004 257 c-25 -22 -25 -23 -8 -37 17 -14 18 -13 6 1 -10 14 -8 19
13 33 22 15 29 15 43 4 15 -12 16 -11 3 5 -18 22 -25 22 -57 -6z"/>
<path d="M1030 240 c0 -5 5 -10 11 -10 5 0 7 5 4 10 -3 6 -8 10 -11 10 -2 0
-4 -4 -4 -10z"/>
<path d="M350 220 c0 -5 5 -10 10 -10 6 0 10 5 10 10 0 6 -4 10 -10 10 -5 0
-10 -4 -10 -10z"/>
<path d="M925 178 c-26 -23 -26 -24 -9 -38 17 -14 18 -13 6 1 -10 14 -8 19 14
34 26 16 26 16 19 -7 -5 -20 -5 -21 6 -5 19 32 -5 42 -36 15z"/>
<path d="M851 84 c0 -11 3 -14 6 -6 3 7 2 16 -1 19 -3 4 -6 -2 -5 -13z"/>
<path d="M820 80 c-9 -6 -10 -10 -3 -10 6 0 15 5 18 10 8 12 4 12 -15 0z"/>
<path d="M780 66 c0 -2 7 -7 16 -10 8 -3 12 -2 9 4 -6 10 -25 14 -25 6z"/>
</g>
</svg>
